<svg id="Grupo_33" data-name="Grupo 33" xmlns="http://www.w3.org/2000/svg" xmlns:xlink="http://www.w3.org/1999/xlink" width="154.896" height="63.317" viewBox="0 0 154.896 63.317">
  <defs>
    <clipPath id="clip-path">
      <rect id="Rectángulo_5" data-name="Rectángulo 5" width="32.228" height="30.461" fill="#fff"/>
    </clipPath>
    <clipPath id="clip-path-2">
      <rect id="Rectángulo_6" data-name="Rectángulo 6" width="28.105" height="30.461" fill="#fff"/>
    </clipPath>
    <clipPath id="clip-path-3">
      <rect id="Rectángulo_7" data-name="Rectángulo 7" width="27.011" height="29.451" fill="#fff"/>
    </clipPath>
    <clipPath id="clip-path-4">
      <rect id="Rectángulo_8" data-name="Rectángulo 8" width="22.804" height="8.864" fill="#fff"/>
    </clipPath>
    <clipPath id="clip-path-5">
      <rect id="Rectángulo_9" data-name="Rectángulo 9" width="9.917" height="8.759" fill="#fff"/>
    </clipPath>
    <clipPath id="clip-path-6">
      <rect id="Rectángulo_10" data-name="Rectángulo 10" width="9.474" height="7.385" fill="#fff"/>
    </clipPath>
    <clipPath id="clip-path-7">
      <rect id="Rectángulo_11" data-name="Rectángulo 11" width="15.201" height="15.884" fill="#fff"/>
    </clipPath>
    <clipPath id="clip-path-8">
      <rect id="Rectángulo_12" data-name="Rectángulo 12" width="138.857" height="27.79" fill="#fff"/>
    </clipPath>
    <clipPath id="clip-path-9">
      <rect id="Rectángulo_13" data-name="Rectángulo 13" width="58.932" height="22.793" fill="#fff"/>
    </clipPath>
  </defs>
  <g id="Grupo_37" data-name="Grupo 37">
    <g id="Grupo_31" data-name="Grupo 31">
      <g id="Grupo_38" data-name="Grupo 38">
        <g id="Grupo_5" data-name="Grupo 5" transform="translate(0.275)">
          <g id="Grupo_4" data-name="Grupo 4">
            <g id="Grupo_3" data-name="Grupo 3" clip-path="url(#clip-path)">
              <path id="Trazado_1" data-name="Trazado 1" d="M30.677,7.426a14.87,14.87,0,0,0-5.764-5.449A17.071,17.071,0,0,0,16.667,0,17.193,17.193,0,0,0,8.4,1.977,14.675,14.675,0,0,0,2.636,7.426a14.874,14.874,0,0,0-2.083,7.8,14.874,14.874,0,0,0,2.083,7.8A14.667,14.667,0,0,0,8.4,28.483a17.182,17.182,0,0,0,8.267,1.978,17.06,17.06,0,0,0,8.246-1.978A14.737,14.737,0,0,0,32.781,15.23a14.762,14.762,0,0,0-2.1-7.8m-6,12.685a8.61,8.61,0,0,1-3.3,3.345,9.35,9.35,0,0,1-4.712,1.2,9.347,9.347,0,0,1-4.713-1.2,8.61,8.61,0,0,1-3.3-3.345,9.834,9.834,0,0,1-1.2-4.881,9.834,9.834,0,0,1,1.2-4.88,8.607,8.607,0,0,1,3.3-3.345,9.347,9.347,0,0,1,4.713-1.2,9.35,9.35,0,0,1,4.712,1.2,8.607,8.607,0,0,1,3.3,3.345,9.834,9.834,0,0,1,1.2,4.88,9.834,9.834,0,0,1-1.2,4.881" transform="translate(-0.553)" fill="#fff"/>
            </g>
          </g>
        </g>
        <g id="Grupo_8" data-name="Grupo 8" transform="translate(34.859)">
          <g id="Grupo_7" data-name="Grupo 7">
            <g id="Grupo_6" data-name="Grupo 6" clip-path="url(#clip-path-2)">
              <path id="Trazado_2" data-name="Trazado 2" d="M86.039,30.461a17.323,17.323,0,0,0,6.942-1.346A13.642,13.642,0,0,0,98.2,25.2l-4.375-4.039a9.361,9.361,0,0,1-7.405,3.492,9.826,9.826,0,0,1-4.88-1.2,8.518,8.518,0,0,1-3.345-3.345,9.832,9.832,0,0,1-1.2-4.88,9.836,9.836,0,0,1,1.2-4.881,8.52,8.52,0,0,1,3.345-3.344,9.827,9.827,0,0,1,4.88-1.2,9.41,9.41,0,0,1,7.405,3.45L98.2,5.217A13.87,13.87,0,0,0,93,1.346a18.258,18.258,0,0,0-15.1.61,14.6,14.6,0,0,0-5.722,5.427,14.958,14.958,0,0,0-2.082,7.847,14.956,14.956,0,0,0,2.082,7.847A14.6,14.6,0,0,0,77.9,28.5a16.912,16.912,0,0,0,8.141,1.956" transform="translate(-70.094)" fill="#fff"/>
            </g>
          </g>
        </g>
        <g id="Grupo_11" data-name="Grupo 11" transform="translate(125.231 0.505)">
          <g id="Grupo_10" data-name="Grupo 10">
            <g id="Grupo_9" data-name="Grupo 9" clip-path="url(#clip-path-3)">
              <path id="Trazado_3" data-name="Trazado 3" d="M272.091,1.015V18.9L257.45,1.015h-5.638V30.466h6.732V12.585l14.683,17.881h5.6V1.015Z" transform="translate(-251.812 -1.015)" fill="#fff"/>
            </g>
          </g>
        </g>
        <g id="Grupo_14" data-name="Grupo 14" transform="translate(66.624 21.092)">
          <g id="Grupo_13" data-name="Grupo 13">
            <g id="Grupo_12" data-name="Grupo 12" clip-path="url(#clip-path-4)">
              <path id="Trazado_4" data-name="Trazado 4" d="M133.966,51.275h22.8V45.806H140.74V42.411a20.169,20.169,0,0,0-6.774,2.583Z" transform="translate(-133.966 -42.411)" fill="#fff"/>
            </g>
          </g>
        </g>
        <g id="Grupo_17" data-name="Grupo 17" transform="translate(113.169 21.197)">
          <g id="Grupo_16" data-name="Grupo 16">
            <g id="Grupo_15" data-name="Grupo 15" clip-path="url(#clip-path-5)">
              <path id="Trazado_5" data-name="Trazado 5" d="M233.558,42.624a45.491,45.491,0,0,1-6,2.125l.156.323,2.608,6.311h7.152Z" transform="translate(-227.558 -42.624)" fill="#fff"/>
            </g>
          </g>
        </g>
        <g id="Grupo_20" data-name="Grupo 20" transform="translate(90.058 22.571)">
          <g id="Grupo_19" data-name="Grupo 19">
            <g id="Grupo_18" data-name="Grupo 18" clip-path="url(#clip-path-6)">
              <path id="Trazado_6" data-name="Trazado 6" d="M181.087,52.77h6.984l2.49-6.024c-1.9-.386-3.987-.876-6.182-1.361Z" transform="translate(-181.087 -45.385)" fill="#fff"/>
            </g>
          </g>
        </g>
        <g id="Grupo_23" data-name="Grupo 23" transform="translate(0 41.822)">
          <g id="Grupo_22" data-name="Grupo 22">
            <g id="Grupo_21" data-name="Grupo 21" clip-path="url(#clip-path-7)">
              <path id="Trazado_7" data-name="Trazado 7" d="M15.2,92.021a8.445,8.445,0,0,0-.98-4.112,7.158,7.158,0,0,0-2.7-2.806,7.549,7.549,0,0,0-3.89-1.01,7.628,7.628,0,0,0-3.9,1.01A7.2,7.2,0,0,0,.995,87.924,8.366,8.366,0,0,0,0,92.021a8.078,8.078,0,0,0,1.039,4.1,7.378,7.378,0,0,0,2.894,2.835,8.671,8.671,0,0,0,4.261,1.024,8.784,8.784,0,0,0,3.43-.653,6.687,6.687,0,0,0,2.6-1.9l-1.188-1.366a5.832,5.832,0,0,1-2.108,1.529,6.737,6.737,0,0,1-2.672.52,6.209,6.209,0,0,1-4.275-1.5,5.58,5.58,0,0,1-1.87-3.934H15.172ZM7.63,85.905a5.349,5.349,0,0,1,3.815,1.44A5.657,5.657,0,0,1,13.182,91.1H2.108a5.655,5.655,0,0,1,1.737-3.756,5.311,5.311,0,0,1,3.786-1.44" transform="translate(0 -84.094)" fill="#fff"/>
            </g>
          </g>
        </g>
        <g id="Grupo_26" data-name="Grupo 26" transform="translate(16.038 35.527)">
          <g id="Grupo_25" data-name="Grupo 25">
            <g id="Grupo_24" data-name="Grupo 24" clip-path="url(#clip-path-8)">
              <path id="Trazado_8" data-name="Trazado 8" d="M46.975,93.468,40.74,85.451l5.879-7.6H44.3l-4.691,6.116-4.691-6.116H32.546l5.879,7.6-6.176,8.016h2.375l4.988-6.532,4.958,6.532ZM57.812,77.732a7.362,7.362,0,0,0-3.519.832,6.5,6.5,0,0,0-2.509,2.375V77.851H49.766V99.228h2.108v-8.7a6.492,6.492,0,0,0,2.508,2.3,7.383,7.383,0,0,0,3.43.787,7.992,7.992,0,0,0,3.993-.995,7.139,7.139,0,0,0,2.776-2.806,9,9,0,0,0,0-8.283,7.117,7.117,0,0,0-2.791-2.806,8.022,8.022,0,0,0-3.978-.995m-.149,14.014a5.892,5.892,0,0,1-2.984-.757A5.376,5.376,0,0,1,52.6,88.836a6.553,6.553,0,0,1-.757-3.177A6.468,6.468,0,0,1,52.6,82.5a5.506,5.506,0,0,1,2.078-2.152,6.125,6.125,0,0,1,5.953,0A5.474,5.474,0,0,1,62.726,82.5a6.468,6.468,0,0,1,.757,3.162,6.553,6.553,0,0,1-.757,3.177,5.347,5.347,0,0,1-2.093,2.152,5.917,5.917,0,0,1-2.969.757m25.147-6.087a8.45,8.45,0,0,0-.98-4.112,7.163,7.163,0,0,0-2.7-2.806,7.549,7.549,0,0,0-3.89-1.01,7.628,7.628,0,0,0-3.9,1.01A7.2,7.2,0,0,0,68.6,81.562a8.366,8.366,0,0,0-.995,4.1,8.078,8.078,0,0,0,1.039,4.1,7.381,7.381,0,0,0,2.894,2.835A8.671,8.671,0,0,0,75.8,93.616a8.784,8.784,0,0,0,3.429-.653,6.692,6.692,0,0,0,2.6-1.9L80.643,89.7a5.834,5.834,0,0,1-2.108,1.529,6.737,6.737,0,0,1-2.672.52,6.209,6.209,0,0,1-4.275-1.5,5.58,5.58,0,0,1-1.87-3.934H82.781ZM75.24,79.543a5.351,5.351,0,0,1,3.815,1.44,5.659,5.659,0,0,1,1.737,3.756H69.717a5.655,5.655,0,0,1,1.737-3.756,5.311,5.311,0,0,1,3.786-1.44m13.182,1.366V77.851H86.4V93.468h2.108V85.511a6.03,6.03,0,0,1,1.4-4.246,4.987,4.987,0,0,1,3.86-1.514l.5.03V77.732a7.518,7.518,0,0,0-3.637.8,5.111,5.111,0,0,0-2.212,2.375M97.6,93.468H99.7V77.851H97.6Zm1.069-19.031a1.521,1.521,0,0,0,1.544-1.544,1.375,1.375,0,0,0-.445-1.024,1.52,1.52,0,0,0-1.1-.431,1.492,1.492,0,0,0-1.1.445,1.425,1.425,0,0,0-.446,1.039,1.458,1.458,0,0,0,.446,1.069,1.493,1.493,0,0,0,1.1.446M118.5,85.659a8.445,8.445,0,0,0-.98-4.112,7.161,7.161,0,0,0-2.7-2.806,7.55,7.55,0,0,0-3.89-1.01,7.627,7.627,0,0,0-3.9,1.01,7.2,7.2,0,0,0-2.731,2.821,8.366,8.366,0,0,0-.995,4.1,8.083,8.083,0,0,0,1.039,4.1,7.382,7.382,0,0,0,2.895,2.835,8.67,8.67,0,0,0,4.261,1.024,8.782,8.782,0,0,0,3.429-.653,6.685,6.685,0,0,0,2.6-1.9L116.33,89.7a5.829,5.829,0,0,1-2.108,1.529,6.733,6.733,0,0,1-2.672.52,6.208,6.208,0,0,1-4.275-1.5,5.578,5.578,0,0,1-1.87-3.934h13.064Zm-7.571-6.116a5.349,5.349,0,0,1,3.815,1.44,5.657,5.657,0,0,1,1.737,3.756H105.4a5.652,5.652,0,0,1,1.737-3.756,5.31,5.31,0,0,1,3.786-1.44m19.12-1.811a7.652,7.652,0,0,0-3.548.787,5.863,5.863,0,0,0-2.39,2.212v-2.88h-2.019V93.468H124.2V85.273a5.663,5.663,0,0,1,1.47-4.142,5.338,5.338,0,0,1,3.993-1.5,4.575,4.575,0,0,1,3.474,1.277,5.18,5.18,0,0,1,1.217,3.711v8.847h2.108V84.413a6.669,6.669,0,0,0-1.737-4.973,6.383,6.383,0,0,0-4.676-1.707m17.9,15.884a8.045,8.045,0,0,0,3.593-.787,5.968,5.968,0,0,0,2.523-2.3l-1.574-1.069a4.811,4.811,0,0,1-1.959,1.722,5.937,5.937,0,0,1-2.583.564,6.115,6.115,0,0,1-3.043-.757,5.34,5.34,0,0,1-2.108-2.137,7.077,7.077,0,0,1,0-6.369,5.319,5.319,0,0,1,2.108-2.152,6.115,6.115,0,0,1,3.043-.757,5.815,5.815,0,0,1,2.583.579,4.927,4.927,0,0,1,1.959,1.737l1.574-1.069a6,6,0,0,0-2.508-2.3,8.027,8.027,0,0,0-3.608-.787,8.418,8.418,0,0,0-4.142,1.01,7.337,7.337,0,0,0-2.865,2.821,8.079,8.079,0,0,0-1.039,4.1,8.161,8.161,0,0,0,1.039,4.112,7.307,7.307,0,0,0,2.865,2.835,8.418,8.418,0,0,0,4.142,1.01m23.158-7.957a8.445,8.445,0,0,0-.98-4.112,7.158,7.158,0,0,0-2.7-2.806,7.549,7.549,0,0,0-3.89-1.01,7.628,7.628,0,0,0-3.9,1.01,7.2,7.2,0,0,0-2.731,2.821,8.366,8.366,0,0,0-.995,4.1,8.078,8.078,0,0,0,1.039,4.1,7.378,7.378,0,0,0,2.894,2.835,8.67,8.67,0,0,0,4.261,1.024,8.784,8.784,0,0,0,3.43-.653,6.687,6.687,0,0,0,2.6-1.9L168.939,89.7a5.832,5.832,0,0,1-2.108,1.529,6.737,6.737,0,0,1-2.672.52,6.209,6.209,0,0,1-4.275-1.5,5.58,5.58,0,0,1-1.87-3.934h13.064Zm-7.571-6.116a5.349,5.349,0,0,1,3.815,1.44,5.657,5.657,0,0,1,1.737,3.756H158.013a5.654,5.654,0,0,1,1.737-3.756,5.311,5.311,0,0,1,3.786-1.44" transform="translate(-32.249 -71.438)" fill="#fff"/>
            </g>
          </g>
        </g>
        <g id="Grupo_29" data-name="Grupo 29" transform="translate(62.788 0.505)">
          <g id="Grupo_28" data-name="Grupo 28">
            <g id="Grupo_27" data-name="Grupo 27" clip-path="url(#clip-path-9)">
              <path id="Trazado_9" data-name="Trazado 9" d="M179.2,14.023,173.382,1.016h-6.732l-6.718,15.071c-5.366-1.63-8.739-4.9-15.775-4.9a32.44,32.44,0,0,0-7.294.8v-5.5h15.482V1.016H130.089V14.479a29.336,29.336,0,0,0-3.835,2.381v6.949q8.206-5.9,16.411-6.681c8.206-.779,16.475,6.274,26.109,6.451a21.123,21.123,0,0,0,16.411-7.039V8.582a15.446,15.446,0,0,1-5.988,5.441m-9.224-6.318,3.48,8.4a35.877,35.877,0,0,1-4.679.753c-.939.091-1.814.127-2.644.126Z" transform="translate(-126.254 -1.016)" fill="#fff"/>
            </g>
          </g>
        </g>
      </g>
    </g>
  </g>
</svg>
